<?xml version="1.0" encoding="utf-8"?>
<!-- Generator: Adobe Illustrator 22.0.1, SVG Export Plug-In . SVG Version: 6.00 Build 0)  -->
<svg version="1.1" id="Isolation_Mode" xmlns="http://www.w3.org/2000/svg" xmlns:xlink="http://www.w3.org/1999/xlink" x="0px"
	 y="0px" viewBox="0 0 71.3 68.5" style="enable-background:new 0 0 71.3 68.5;" xml:space="preserve">
<style type="text/css">
	.st0{fill:#FFFFFF;}
	.st1{fill:url(#SVGID_1_);}
</style>
<g>
	<g>
		<path class="st0" d="M11.4,50.3c0-19.4,19.1-34.1,23.6-50.3C24,0.2,14.3,5.3,7.9,13.3C2.9,19.4,0,27.2,0,35.6
			C0,50.4,9,63,21.8,68.5C15.5,64.4,11.4,57.8,11.4,50.3z"/>
		<path class="st0" d="M36.3,0c4.5,16.2,23.6,30.8,23.6,50.3c0,7.5-4.1,14.2-10.4,18.2c12.8-5.4,21.8-18.1,21.8-32.8
			C71.3,16.2,55.7,0.4,36.3,0z"/>
	</g>
	<linearGradient id="SVGID_1_" gradientUnits="userSpaceOnUse" x1="17.6677" y1="20.5298" x2="50.304" y2="62.3023">
		<stop  offset="0.2723" style="stop-color:#99C8EC"/>
		<stop  offset="0.4925" style="stop-color:#89B2D9"/>
		<stop  offset="0.7379" style="stop-color:#0076CF"/>
	</linearGradient>
	<path class="st1" d="M17,46.5c2.2-15.1,16.8-26.8,18.6-40.1h0c1.9,13.2,16.4,24.9,18.6,40.1c-2.6,3.7-10,6.4-18.6,6.4
		C27,53,19.6,50.3,17,46.5z M20.8,61.6c3.5,4.2,8.8,6.9,14.8,6.9h0.1c6,0,11.3-2.7,14.8-6.9c-3.6,2-8.9,3.2-14.8,3.2
		C29.7,64.8,24.4,63.6,20.8,61.6z M54.5,49.7c-2.3,3.9-9.9,6.8-18.9,6.8s-16.6-2.9-18.9-6.8c0,0.2,0,0.4,0,0.6
		c0,1.8,0.3,3.5,0.8,5.1c3,3.4,10,5.8,18.1,5.8c8.2,0,15.2-2.4,18.1-5.8c0.5-1.6,0.8-3.4,0.8-5.1C54.6,50.1,54.5,49.9,54.5,49.7z"/>
</g>
</svg>
